<?xml version="1.0" encoding="UTF-8" standalone="no"?>
<svg
   xmlns:dc="http://purl.org/dc/elements/1.1/"
   xmlns:cc="http://creativecommons.org/ns#"
   xmlns:rdf="http://www.w3.org/1999/02/22-rdf-syntax-ns#"
   xmlns:svg="http://www.w3.org/2000/svg"
   xmlns="http://www.w3.org/2000/svg"
   xmlns:sodipodi="http://sodipodi.sourceforge.net/DTD/sodipodi-0.dtd"
   xmlns:inkscape="http://www.inkscape.org/namespaces/inkscape"
   version="1.1"
   id="svg2"
   xml:space="preserve"
   width="1306.6667"
   height="1600"
   viewBox="0 0 1306.6667 1600"
   sodipodi:docname="flower_line_drawing.ai"><metadata
     id="metadata8"><rdf:RDF><cc:Work
         rdf:about=""><dc:format>image/svg+xml</dc:format><dc:type
           rdf:resource="http://purl.org/dc/dcmitype/StillImage" /></cc:Work></rdf:RDF></metadata><defs
     id="defs6"><clipPath
       clipPathUnits="userSpaceOnUse"
       id="clipPath18"><path
         d="M 0,1200 H 980 V 0 H 0 Z"
         id="path16" /></clipPath></defs><sodipodi:namedview
     pagecolor="#ffffff"
     bordercolor="#666666"
     borderopacity="1"
     objecttolerance="10"
     gridtolerance="10"
     guidetolerance="10"
     inkscape:pageopacity="0"
     inkscape:pageshadow="2"
     inkscape:window-width="640"
     inkscape:window-height="480"
     id="namedview4" /><g
     id="g10"
     inkscape:groupmode="layer"
     inkscape:label="flower_line_drawing"
     transform="matrix(1.3333333,0,0,-1.3333333,0,1600)"><g
       id="g12"><g
         id="g14"
         clip-path="url(#clipPath18)"><g
           id="g20"
           transform="translate(460.8999,678.0615)"><path
             d="M 0,0 C 1.935,0 1.935,3 0,3 -1.935,3 -1.935,0 0,0"
             style="fill:#000000;fill-opacity:1;fill-rule:nonzero;stroke:none"
             id="path22" /></g><g
           id="g24"
           transform="translate(503.666,668.1416)"><path
             d="m 0,0 c 28.923,42.91 34.068,96.988 41.861,146.789 3.965,25.335 8.892,50.692 15.894,75.381 3.525,12.431 8.382,24.381 15.388,35.271 6.411,9.965 15.061,18.478 23.184,27.047 16.086,16.968 38.014,39.805 63.516,38.232 l -1.061,2.561 c -8.193,-6.99 -15.764,-15.867 -16.909,-27.01 -1.037,-10.1 2.457,-19.688 6.303,-28.855 5.341,-12.73 10.627,-24.368 11.379,-38.407 0.792,-14.8 -2.554,-29.583 -6.259,-43.808 -3.539,-13.592 -7.374,-27.079 -10.699,-40.728 -3.302,-13.552 -6.025,-27.239 -9.191,-40.823 C 126.922,77.838 117.855,51.064 100.791,27.836 93.415,17.796 84.715,8.743 75.672,0.204 71.502,-3.734 67.187,-7.515 62.82,-11.233 c -2.153,-1.834 -4.337,-3.632 -6.525,-5.422 -1.577,-1.291 -4.561,-4.786 -6.643,-4.786 -1.934,0 -1.934,-3 0,-3 4.131,0 8.346,5.312 11.376,7.81 5.74,4.73 11.328,9.639 16.765,14.713 10.125,9.448 19.489,19.714 27.57,30.969 16.217,22.585 24.619,49.028 30.936,75.802 3.203,13.576 5.933,27.259 9.19,40.823 3.281,13.66 7.106,27.149 10.699,40.727 3.569,13.479 6.396,27.226 6.449,41.221 0.049,13.112 -3.799,24.783 -8.989,36.642 -4.093,9.354 -8.583,19.005 -8.996,29.374 -0.488,12.267 7.412,21.979 16.251,29.52 1.073,0.914 0.133,2.486 -1.06,2.56 -22.277,1.374 -41.67,-15.486 -56.628,-29.964 C 86.738,279.809 70.183,262.741 61.236,241.301 56.347,229.583 53.17,217.316 50.287,204.978 47.369,192.49 44.534,179.996 42.26,167.373 37.606,141.553 34.465,115.486 29.547,89.71 23.668,58.902 15.124,27.795 -2.59,1.514 -3.675,-0.095 -1.074,-1.595 0,0"
             style="fill:#000000;fill-opacity:1;fill-rule:nonzero;stroke:none"
             id="path26" /></g><g
           id="g28"
           transform="translate(657.4609,846.7485)"><path
             d="m 0,0 c 20.966,26.596 55.959,37.398 88.201,42.269 l -1.693,2.203 C 82.001,35.803 78.653,26.822 76.433,17.307 74.04,7.054 73.003,-3.537 70.028,-13.649 63.503,-35.836 47.985,-52.398 33.308,-69.489 20.582,-84.307 8,-99.246 -5.487,-113.387 c -13.713,-14.378 -28.547,-28.673 -46.094,-38.286 -1.697,-0.93 -0.184,-3.52 1.514,-2.591 16.865,9.24 31.156,22.781 44.485,36.457 14.379,14.753 27.61,30.567 41.012,46.197 13.682,15.96 27.423,30.974 35.305,50.834 4.01,10.103 5.337,21.006 7.396,31.614 2.187,11.272 5.66,21.913 10.967,32.12 0.652,1.254 -0.406,2.398 -1.694,2.204 C 54.719,40.224 19.129,29.079 -2.121,2.121 -3.305,0.62 -1.197,-1.519 0,0"
             style="fill:#000000;fill-opacity:1;fill-rule:nonzero;stroke:none"
             id="path30" /></g><g
           id="g32"
           transform="translate(579.1924,617.0947)"><path
             d="m 0,0 c 27.215,5.956 54.086,13.582 79.909,24.101 26.413,10.757 49.891,25.426 72.613,42.532 22.25,16.751 44.083,35.417 61.2,57.537 13.818,17.859 22.596,39.142 37.558,56.197 4.792,5.463 10.355,10.208 16.853,13.507 -0.505,0.863 -1.009,1.727 -1.514,2.59 -26.617,-17.67 -59.28,-13.95 -89.364,-19.283 -28.441,-5.041 -58.659,-11.042 -79.187,-33.152 -1.314,-1.415 0.803,-3.541 2.121,-2.121 20.775,22.376 52.11,28.126 80.907,32.903 29.548,4.901 60.919,1.723 87.037,19.063 1.613,1.07 0.215,3.468 -1.514,2.59 C 247.48,186.75 236.395,165.756 225.785,148.103 220.114,138.666 214.434,129.07 207.073,120.827 197.136,109.699 186.933,99.1 175.715,89.235 153.709,69.883 129.548,51.745 103.495,38.215 78.013,24.981 50.526,15.784 22.812,8.52 14.985,6.469 7.105,4.622 -0.797,2.893 -2.687,2.479 -1.886,-0.413 0,0"
             style="fill:#000000;fill-opacity:1;fill-rule:nonzero;stroke:none"
             id="path34" /></g><g
           id="g36"
           transform="translate(720.8291,673.4072)"><path
             d="m 0,0 c 15.914,3.574 31.385,-2.121 47.16,-3.734 12.759,-1.306 26.056,-1.393 38.877,-1.303 23.825,0.17 49.477,4.556 64.723,24.687 0.398,0.525 0.204,1.389 -0.235,1.818 -0.391,0.383 -0.783,0.766 -1.174,1.149 -0.581,0.569 -1.543,0.588 -2.122,0 C 135.817,11.031 132.853,-5.84 122.23,-17.995 109.526,-32.533 89.155,-39.751 71.489,-45.946 c -1.808,-0.634 -1.051,-3.505 0.797,-2.893 14.651,4.846 31.873,10.195 46.813,3.526 13.795,-6.158 23.626,-20.527 32.833,-31.87 0.486,0.836 0.972,1.671 1.459,2.507 -8.259,2.613 -17.361,-0.247 -25.19,-3.025 -10.16,-3.607 -19.822,-8.512 -29.676,-12.852 -25.528,-11.241 -51.671,-7.479 -78.478,-4.498 -31.572,3.511 -61.971,-2.478 -92.974,-7.743 -11.353,-1.929 -22.726,-3.892 -34.11,-5.641 -11.138,-1.711 -23.503,-3.594 -34.602,-0.715 -1.874,0.486 -2.669,-2.408 -0.797,-2.893 10.18,-2.641 21.135,-1.331 31.408,0.03 11.065,1.466 21.995,3.768 33.031,5.412 31.537,4.699 62.298,12.044 94.409,8.93 26.042,-2.524 52.514,-7.822 77.772,2.069 10.131,3.967 19.807,9.019 29.885,13.12 8.514,3.463 19.285,7.836 28.525,4.914 1.56,-0.495 2.332,1.431 1.459,2.506 -9.657,11.897 -19.935,26.733 -34.603,32.85 -15.439,6.439 -32.89,1.251 -47.961,-3.734 0.266,-0.965 0.532,-1.929 0.797,-2.893 17.936,6.289 35.84,13.471 49.979,26.569 12.713,11.778 15.016,30.512 27.086,42.766 h -2.122 c 0.392,-0.383 0.784,-0.767 1.175,-1.149 -0.078,0.606 -0.156,1.212 -0.234,1.817 C 132.428,0.378 104.867,-2.24 80.706,-2.032 68.088,-1.923 54.927,-1.882 42.428,-0.174 27.842,1.819 13.978,6.211 -0.797,2.893 -2.685,2.469 -1.884,-0.423 0,0"
             style="fill:#000000;fill-opacity:1;fill-rule:nonzero;stroke:none"
             id="path38" /></g><g
           id="g40"
           transform="translate(726.3076,576.1641)"><path
             d="m 0,0 c 35.532,1.202 63.604,-24.774 88.028,-47.558 12.418,-11.583 24.675,-23.381 38.121,-33.786 11.182,-8.653 23.902,-17.086 38.145,-19.315 -0.367,0.482 -0.734,0.964 -1.102,1.446 v -1.183 c 0.633,0.482 1.266,0.963 1.899,1.446 -7.986,1.543 -13.441,-3.034 -17.815,-9.243 -5.76,-8.177 -9.062,-17.155 -16.685,-23.96 -23.596,-21.066 -56.264,-22.659 -85.416,-14.65 -54.812,15.057 -99.699,52.02 -150.459,75.944 -9.545,4.499 -19.35,8.445 -29.377,11.731 -5.161,1.691 -10.651,2.679 -15.687,4.691 -4.622,1.848 -9.376,2.812 -14.347,2.933 -1.936,0.047 -1.931,-2.953 0,-3 7.06,-0.172 13.093,-2.951 19.788,-4.718 6.882,-1.816 13.633,-4.11 20.287,-6.625 13.282,-5.02 26.038,-11.367 38.518,-18.108 24.329,-13.142 47.523,-28.269 71.919,-41.288 24.147,-12.887 51.101,-25.291 78.51,-28.577 25.941,-3.11 53.98,4.095 72.46,23.424 7.879,8.242 12.756,31.403 27.507,28.553 0.946,-0.182 1.898,0.414 1.898,1.447 v 1.183 c 0,0.609 -0.452,1.345 -1.101,1.446 -15.166,2.375 -28.435,11.846 -40.183,21.181 -13.64,10.839 -26.067,23.124 -38.842,34.943 C 74.182,-30.646 61.567,-20.352 48.089,-11.357 33.525,-1.64 17.585,3.595 0,3 -1.929,2.935 -1.936,-0.065 0,0"
             style="fill:#000000;fill-opacity:1;fill-rule:nonzero;stroke:none"
             id="path42" /></g><g
           id="g44"
           transform="translate(544.7627,500.251)"><path
             d="m 0,0 c 5.779,-21.173 19.957,-36.854 36.326,-50.75 17.13,-14.541 34.716,-27.69 47.164,-46.763 13.161,-20.165 14.16,-46.198 30.82,-64.437 7.654,-8.38 19.724,-12.953 30.221,-16.457 12.127,-4.049 25.181,-7.211 37.954,-8.057 23.693,-1.567 47.131,6.531 69.364,13.612 -0.266,0.964 -0.532,1.929 -0.797,2.893 -8.759,-2.873 -13.185,2.895 -15.509,10.718 -3.218,10.827 -3.377,22.631 -4.076,33.822 -0.743,11.908 -1.366,23.96 -4.021,35.63 -1.862,8.19 -5.268,17.435 -13.154,21.575 -1.711,0.899 -3.228,-1.69 -1.514,-2.59 8.978,-4.715 11.382,-16.598 12.95,-25.704 2.182,-12.68 2.454,-25.65 3.365,-38.46 0.916,-12.867 1.886,-44.728 22.756,-37.884 1.828,0.6 1.053,3.483 -0.797,2.893 -14.824,-4.721 -29.657,-9.477 -45.031,-12.077 -15.667,-2.65 -30.515,-1.209 -45.873,2.391 -12.648,2.965 -25.327,6.977 -36.377,13.953 -11.322,7.146 -17.225,19.359 -21.841,31.468 -4.246,11.139 -7.509,22.636 -12.988,33.272 -4.981,9.673 -12.181,18.318 -19.835,25.977 C 53.825,-59.679 35.294,-47.999 20.828,-31.834 12.4,-22.415 6.224,-11.405 2.893,0.797 2.384,2.661 -0.511,1.869 0,0"
             style="fill:#000000;fill-opacity:1;fill-rule:nonzero;stroke:none"
             id="path46" /></g><g
           id="g48"
           transform="translate(517.5117,504.6016)"><path
             d="m 0,0 c -3.293,-22.351 9.666,-45.461 18.538,-65.144 11.778,-26.131 18.916,-55.196 24.076,-83.32 4.739,-25.829 7.264,-52.28 19.829,-75.843 5.624,-10.547 13.754,-18.908 21.959,-27.443 8.108,-8.433 16.851,-16.388 26.638,-22.837 4.54,-2.992 9.442,-5.456 14.649,-7.037 6.101,-1.853 12.84,-1.083 19.124,-1.083 1.383,0 1.886,1.6 1.061,2.561 -6.34,7.384 -4.033,18.449 -1.724,26.967 2.712,10.008 7.104,19.496 11.223,28.979 3.927,9.041 5.423,17.85 2.866,27.551 -2.845,10.799 -9.707,20.154 -13.165,30.769 -0.596,1.831 -3.493,1.048 -2.892,-0.797 3.471,-10.658 9.971,-20.038 13.165,-30.77 3.549,-11.928 -1.175,-21.979 -5.798,-32.666 -6.131,-14.174 -17.875,-38.085 -5.796,-52.155 l 1.06,2.561 c -6.084,0 -12.399,-0.596 -18.326,0.976 -5.91,1.567 -11.324,4.928 -16.328,8.339 -10.041,6.846 -18.838,15.58 -27.109,24.428 -9.052,9.683 -16.624,19.195 -22.026,31.422 -5.376,12.172 -8.33,25.356 -10.758,38.383 -2.641,14.162 -4.528,28.427 -7.546,42.523 -3.074,14.362 -7.024,28.52 -11.443,42.521 -3.847,12.189 -8.447,23.693 -13.691,35.327 -5.319,11.8 -10.49,23.778 -13.468,36.416 C 2.692,-13.32 1.981,-6.98 2.893,-0.797 3.172,1.095 0.281,1.908 0,0"
             style="fill:#000000;fill-opacity:1;fill-rule:nonzero;stroke:none"
             id="path50" /></g><g
           id="g52"
           transform="translate(485.6714,499.0352)"><path
             d="m 0,0 c -8.835,-14.213 -3.267,-34.688 0.393,-49.644 5.032,-20.566 12.809,-40.776 15.478,-61.857 1.479,-11.685 -0.291,-23.696 -1.726,-35.299 -1.708,-13.813 -3.691,-27.659 -3.15,-41.615 0.422,-10.915 3.12,-20.855 9.297,-29.906 6.012,-8.811 14.232,-15.983 22.311,-22.83 11.202,-9.495 23.416,-18.448 32.043,-30.508 0.833,-1.165 2.787,-0.83 2.795,0.757 0.124,24.992 4.689,49.589 8.241,74.247 0.273,1.891 -2.618,2.706 -2.892,0.797 -3.59,-24.919 -8.224,-49.787 -8.349,-75.044 0.932,0.252 1.863,0.505 2.795,0.756 -12.737,17.81 -32.334,29.085 -47.302,44.784 -8.353,8.76 -13.85,18.614 -15.427,30.692 -1.777,13.609 0.114,27.607 1.792,41.126 1.558,12.545 3.708,25.374 2.951,38.053 -0.547,9.189 -2.845,18.287 -5.154,27.161 -5.415,20.817 -13.052,41.487 -15.158,63.011 -0.78,7.967 -0.704,16.798 3.653,23.805 C 3.615,0.134 1.019,1.639 0,0"
             style="fill:#000000;fill-opacity:1;fill-rule:nonzero;stroke:none"
             id="path54" /></g><g
           id="g56"
           transform="translate(459.3999,499.4639)"><path
             d="m 0,0 c -7.719,-61.116 -37.449,-117.31 -64.674,-171.659 -11.409,-22.775 -24.014,-45.422 -46.349,-59.07 -8.961,-5.476 -19.029,-9.274 -28.994,-12.461 -10.754,-3.441 -22.065,-6.007 -33.4,-6.04 -4.045,-0.012 -8.068,0.513 -11.89,1.858 l 0.897,-2.203 c 13.944,20.059 14.811,46.032 15.184,69.597 0.209,13.142 -0.072,26.323 1.743,39.373 1.848,13.292 6.059,26.085 11.896,38.141 5.236,10.815 12.021,20.808 18.276,31.043 5.504,9.005 11.038,17.99 16.886,26.778 12.106,18.193 25.879,35.96 43.695,48.912 15.959,11.602 34.825,17.291 54.534,15.558 v 3 h -1.186 c -1.934,0 -1.934,-3 0,-3 h 1.186 c 1.963,0 1.896,2.833 0,3 -44.219,3.888 -75.653,-29.143 -98.636,-62.719 -6.005,-8.772 -11.601,-17.819 -17.153,-26.881 -6.078,-9.922 -12.542,-19.668 -18.029,-29.933 -5.936,-11.103 -10.33,-22.948 -12.978,-35.256 -2.656,-12.343 -2.974,-24.937 -3.115,-37.512 -0.294,-26.254 0.777,-56.044 -14.894,-78.588 -0.588,-0.846 0.049,-1.905 0.897,-2.203 8.557,-3.01 18.03,-2.099 26.813,-0.715 11.253,1.774 22.277,5.26 32.836,9.475 9.2,3.671 18.039,8.208 25.909,14.261 9.337,7.182 16.731,16.566 23.131,26.371 6.84,10.478 12.372,21.765 17.952,32.942 6.812,13.645 13.495,27.365 20.071,41.125 12.998,27.196 25.09,54.936 33.504,83.929 C -1.814,-28.836 1.168,-14.504 3,0 3.242,1.916 0.239,1.893 0,0"
             style="fill:#000000;fill-opacity:1;fill-rule:nonzero;stroke:none"
             id="path58" /></g><g
           id="g60"
           transform="translate(390.6797,318.1816)"><path
             d="m 0,0 c -2.347,-48.504 15.935,-95.564 24.936,-142.58 0.139,-0.731 1.131,-1.349 1.845,-1.048 10.665,4.497 19.886,13.462 28.561,20.889 9.793,8.384 19.379,18.847 30.607,25.289 5.364,3.077 11.195,5.155 16.074,9.041 5.837,4.648 6.423,11.507 6.884,18.448 1.391,20.928 -1.558,41.973 0.73,62.852 0.211,1.922 -2.792,1.901 -3,0 -2.074,-18.925 0.077,-38.049 -0.46,-57.034 -0.247,-8.746 0.048,-17.588 -7.647,-23.185 -4.944,-3.597 -10.949,-5.591 -16.167,-8.754 -9.51,-5.765 -17.823,-14.737 -26.195,-21.995 -9.11,-7.899 -18.91,-17.903 -30.185,-22.658 0.615,-0.349 1.23,-0.699 1.845,-1.048 C 18.878,-95.028 0.667,-48.227 3,0 3.094,1.935 0.093,1.926 0,0"
             style="fill:#000000;fill-opacity:1;fill-rule:nonzero;stroke:none"
             id="path62" /></g><g
           id="g64"
           transform="translate(401.6582,566.6836)"><path
             d="M 0,0 C 1.972,0.189 0.359,-0.14 1,1.092 0.766,0.643 0.217,0.249 -0.148,-0.081 -1.394,-1.208 -2.854,-2.12 -4.26,-3.029 c -2.667,-1.728 -5.585,-3.576 -8.62,-4.581 -5.943,-1.966 -12.789,-2.472 -18.916,-3.961 -7.837,-1.904 -15.624,-4.022 -23.44,-6.011 -26.073,-6.637 -53.548,-6.195 -78.263,-17.932 -40.207,-19.092 -62.23,-64.427 -77.062,-103.998 -6.468,-17.259 -11.717,-34.983 -16.007,-52.904 -0.285,-1.188 1.059,-2.486 2.203,-1.693 25.936,17.965 54.992,25.755 85.906,29.672 10.935,1.384 21.873,2.908 32.69,5.037 2.716,0.534 16.562,2.046 16.036,6.871 -0.207,1.901 -3.209,1.922 -3,0 0.203,-1.862 -18.794,-4.915 -20.884,-5.278 -10.473,-1.814 -21.024,-3.198 -31.575,-4.461 -28.922,-3.461 -56.647,-12.599 -80.687,-29.252 l 2.203,-1.693 c 10.425,43.537 25.994,88.939 54.266,124.303 15.334,19.181 34.931,32.259 58.828,38.29 13.294,3.355 27,4.802 40.509,7.01 14.441,2.36 28.424,6.629 42.64,10.003 5.298,1.256 11.542,1.436 16.54,3.554 3.367,1.427 6.541,3.346 9.577,5.372 1.817,1.214 4.698,2.887 5.28,5.179 C 4.577,2.911 1.565,3.15 0,3 -1.908,2.816 -1.926,-0.185 0,0"
             style="fill:#000000;fill-opacity:1;fill-rule:nonzero;stroke:none"
             id="path66" /></g><g
           id="g68"
           transform="translate(244.1978,400.9971)"><path
             d="m 0,0 c -24.6,-26.525 -22.966,-66.644 -39.335,-97.462 -0.764,-1.438 1.253,-3.203 2.356,-1.817 10.102,12.7 22.185,23.355 36.969,30.257 14.449,6.745 31.658,8.13 43.6,19.506 1.404,1.337 -0.721,3.455 -2.121,2.121 -11.855,-11.292 -29.937,-12.942 -44.383,-19.686 -14.406,-6.725 -26.374,-17.74 -36.186,-30.077 0.785,-0.606 1.57,-1.212 2.356,-1.818 7.945,14.958 11.757,31.695 16.246,47.905 4.779,17.254 10.171,35.527 22.619,48.95 C 3.435,-0.705 1.318,1.421 0,0"
             style="fill:#000000;fill-opacity:1;fill-rule:nonzero;stroke:none"
             id="path70" /></g><g
           id="g72"
           transform="translate(216.0645,481.8008)"><path
             d="m 0,0 c -16.968,-8.526 -34.691,-10.567 -52.844,-4.722 -16.877,5.434 -31.83,16.199 -46.354,26.049 l -1.515,-2.59 c 25.763,-13.424 51.751,5.207 71.25,21.236 11.828,9.721 22.961,20.265 34.997,29.736 9.703,7.634 21.455,16.176 34.323,16.361 1.933,0.029 1.936,3.029 0,3 C 28.632,88.908 18.485,82.799 9.603,76.486 -2.433,67.933 -13.259,57.748 -24.431,48.13 -43.947,31.328 -71.981,7.146 -99.198,21.327 c -1.728,0.901 -3.109,-1.509 -1.515,-2.59 15.671,-10.629 31.606,-21.715 49.92,-27.24 17.835,-5.382 35.893,-2.336 52.308,5.913 C 3.243,-1.722 1.724,0.866 0,0"
             style="fill:#000000;fill-opacity:1;fill-rule:nonzero;stroke:none"
             id="path74" /></g><g
           id="g76"
           transform="translate(405.9697,571.8496)"><path
             d="m 0,0 c -9.869,7.584 -21.196,12.932 -33.626,14.49 -12.022,1.508 -23.979,0.035 -35.79,-2.33 -13.032,-2.609 -25.778,-6.518 -38.836,-9.001 -12.334,-2.346 -24.871,-3.537 -37.417,-3.82 -50.547,-1.142 -103.542,15.522 -135.17,56.84 -4.806,6.277 -9.53,12.571 -15.07,18.232 l -1.061,-2.56 c 21.65,-0.621 42.009,15.869 58.762,27.596 9.495,6.646 18.848,13.161 29.426,17.99 12.862,5.872 26.652,9.064 40.803,8.933 14.905,-0.138 29.276,-4.39 43.25,-9.189 15.149,-5.203 29.926,-11.455 44.472,-18.145 28.488,-13.104 55.473,-28.969 83.482,-42.976 1.185,-0.593 2.37,-1.185 3.555,-1.777 1.726,-0.862 3.245,1.726 1.515,2.591 -28.072,14.022 -55.192,29.799 -83.617,43.161 -26.119,12.278 -54.256,25.131 -83.14,28.692 -24.993,3.081 -49.353,-5.156 -69.993,-18.906 -18.941,-12.618 -38.051,-29.877 -60.988,-34.428 -2.482,-0.493 -5.004,-0.615 -7.527,-0.542 -1.333,0.038 -1.952,-1.65 -1.06,-2.561 9.941,-10.161 17.288,-22.447 27.441,-32.426 8.368,-8.226 17.964,-15.171 28.12,-21.011 20.55,-11.822 43.833,-18.295 67.259,-21.113 23.846,-2.867 48.741,-1.76 72.207,3.432 25.256,5.589 51.616,15.455 77.609,8.611 C -16.61,7.471 -8.669,2.908 -1.514,-2.59 0.021,-3.77 1.512,-1.161 0,0"
             style="fill:#000000;fill-opacity:1;fill-rule:nonzero;stroke:none"
             id="path78" /></g><g
           id="g80"
           transform="translate(195.8936,694.0391)"><path
             d="m 0,0 c -6.16,1.71 -10.952,7.01 -15.017,11.658 -5.467,6.252 -10.095,13.247 -14.481,20.282 -3.86,6.192 -7.441,12.559 -10.852,19.008 -1.551,2.935 -3.898,6.942 -4.812,9.619 -0.614,-0.615 -1.23,-1.231 -1.845,-1.845 3.685,-0.503 8.224,1.02 11.834,1.596 9.259,1.478 18.54,2.808 27.865,3.796 10.262,1.088 20.619,1.769 30.939,1.309 7.204,-0.321 16.84,-0.916 22.304,-6.316 1.377,-1.36 3.499,0.76 2.121,2.122 -4.849,4.792 -12.238,5.994 -18.725,6.75 -10.323,1.203 -20.887,0.547 -31.206,-0.341 -9.837,-0.846 -19.631,-2.19 -29.388,-3.688 -4.195,-0.644 -11.412,-2.818 -14.946,-2.336 -1.03,0.141 -2.258,-0.636 -1.845,-1.845 1.136,-3.328 3.122,-6.525 4.741,-9.625 3.675,-7.034 7.617,-13.93 11.815,-20.665 4.512,-7.237 9.411,-14.283 15.031,-20.709 4.196,-4.8 9.349,-9.909 15.669,-11.663 C 1.07,-3.411 1.861,-0.517 0,0"
             style="fill:#000000;fill-opacity:1;fill-rule:nonzero;stroke:none"
             id="path82" /></g><g
           id="g84"
           transform="translate(210.7866,818.6152)"><path
             d="m 0,0 c 25.807,-44.604 36.212,-101.2 79.923,-133.24 1.564,-1.145 3.057,1.46 1.515,2.591 C 38.332,-99.053 28.043,-42.479 2.591,1.515 1.623,3.188 -0.97,1.678 0,0"
             style="fill:#000000;fill-opacity:1;fill-rule:nonzero;stroke:none"
             id="path86" /></g><g
           id="g88"
           transform="translate(205.9932,822.2256)"><path
             d="m 0,0 c 6.404,-3.86 14.304,-4.089 21.569,-3.854 9.889,0.32 19.719,1.964 29.526,3.156 15.289,1.859 41.553,5.803 45.966,-14.401 0.412,-1.89 3.304,-1.088 2.892,0.798 C 95.866,4.415 75.109,4.517 59.667,3.212 48.93,2.305 38.297,0.458 27.563,-0.479 19.13,-1.214 9.072,-1.966 1.514,2.591 -0.147,3.592 -1.654,0.998 0,0"
             style="fill:#000000;fill-opacity:1;fill-rule:nonzero;stroke:none"
             id="path90" /></g><g
           id="g92"
           transform="translate(291.1528,920.6772)"><path
             d="m 0,0 c 0.696,-26.12 -1.582,-52.301 2.131,-78.281 1.878,-13.138 5.687,-25.892 11.506,-37.821 6.164,-12.637 14.918,-24.199 23.609,-35.19 17.649,-22.319 38.273,-42.098 58.764,-61.757 16.235,-15.576 33.93,-30.168 48.98,-46.902 1.297,-1.441 3.411,0.688 2.121,2.121 -14.289,15.888 -31.061,29.712 -46.473,44.498 -19.682,18.881 -39.399,37.79 -56.888,58.767 -8.833,10.595 -17.059,21.8 -24.114,33.664 -7.312,12.296 -11.62,26.078 -14.085,40.102 C 0.869,-54.156 3.716,-26.874 3,0 2.949,1.931 -0.052,1.936 0,0"
             style="fill:#000000;fill-opacity:1;fill-rule:nonzero;stroke:none"
             id="path94" /></g><g
           id="g96"
           transform="translate(293.0518,919.1772)"><path
             d="M 0,0 C 11.997,1.943 24.883,1.768 36.975,1.082 49.155,0.39 60.91,-4.793 71.66,-10.246 c 24.176,-12.264 51.276,-34.501 47.296,-64.677 -0.253,-1.913 2.751,-1.889 3,0 4.08,30.937 -23.113,53.735 -47.724,66.72 C 63.453,-2.516 51.34,2.84 39.084,3.93 26.137,5.082 12.063,4.976 -0.798,2.893 -2.704,2.584 -1.892,-0.307 0,0"
             style="fill:#000000;fill-opacity:1;fill-rule:nonzero;stroke:none"
             id="path98" /></g><g
           id="g100"
           transform="translate(462.4165,963.1406)"><path
             d="m 0,0 c -3.196,-10.636 -10.178,-20.16 -16.177,-29.363 -7.033,-10.791 -13.865,-21.663 -19.161,-33.435 -10.63,-23.622 -16.214,-50.465 -15.563,-76.369 0.653,-26.022 7.534,-51.702 16.072,-76.136 4.335,-12.408 9.314,-24.586 14.553,-36.636 4.689,-10.786 9.275,-21.862 14.432,-32.397 0.85,-1.738 3.437,-0.216 2.591,1.514 -10.768,21.997 -20.494,45.182 -28.684,68.317 -8.753,24.728 -15.344,50.619 -16.005,76.954 -0.666,26.529 5.989,54.099 17.387,77.969 5.255,11.006 12.083,21.191 18.718,31.391 5.587,8.589 11.751,17.482 14.73,27.393 C 3.451,1.06 0.555,1.848 0,0"
             style="fill:#000000;fill-opacity:1;fill-rule:nonzero;stroke:none"
             id="path102" /></g><g
           id="g104"
           transform="translate(461.0249,961.6777)"><path
             d="m 0,0 c 37.574,-44.81 82.078,-94.102 80.129,-156.523 -0.06,-1.936 2.94,-1.93 3,0 C 85.105,-93.251 40.222,-43.316 2.121,2.121 0.876,3.605 -1.234,1.472 0,0"
             style="fill:#000000;fill-opacity:1;fill-rule:nonzero;stroke:none"
             id="path106" /></g><g
           id="g108"
           transform="translate(504.8496,912.2178)"><path
             d="m 0,0 c 7.336,10.145 12.233,21.522 17.589,32.764 6.108,12.824 13.812,24.169 24.831,33.285 l -2.561,1.06 C 40.097,56.839 46.39,48.916 52.68,41.36 60.633,31.806 68.048,22.171 67.112,9.053 c -0.137,-1.931 2.864,-1.918 3,0 0.81,11.347 -4.221,20.615 -11.061,29.268 -6.819,8.626 -15.92,17.032 -16.192,28.788 -0.032,1.39 -1.574,1.877 -2.56,1.061 C 29.852,59.527 22.301,48.937 16.264,36.876 10.251,24.865 5.334,12.472 -2.59,1.514 -3.727,-0.057 -1.122,-1.552 0,0"
             style="fill:#000000;fill-opacity:1;fill-rule:nonzero;stroke:none"
             id="path110" /></g><g
           id="g112"
           transform="translate(659.5557,992.6211)"><path
             d="m 0,0 c -12.354,-2.578 -21.149,-13.194 -27.754,-23.215 -9.593,-14.556 -16.096,-31.185 -21.824,-47.564 -10.832,-30.969 -17.619,-62.985 -25.468,-94.772 -3.098,-12.544 -6.939,-24.897 -9.982,-37.464 -3.573,-14.749 -6.509,-29.644 -8.797,-44.644 -2.139,-14.024 -3.274,-28.167 -5.454,-42.184 -1.954,-12.563 -4.717,-26.156 -12.757,-36.376 -1.182,-1.502 0.926,-3.641 2.121,-2.121 7.169,9.113 10.291,20.384 12.472,31.593 2.544,13.077 3.574,26.383 5.28,39.578 3.939,30.457 12.043,59.583 19.614,89.243 7.954,31.155 14.435,62.551 24.739,93.078 5.46,16.175 11.8,32.274 20.639,46.931 6.337,10.51 15.229,22.366 27.968,25.024 C 2.69,-2.498 1.888,0.394 0,0"
             style="fill:#000000;fill-opacity:1;fill-rule:nonzero;stroke:none"
             id="path114" /></g><g
           id="g116"
           transform="translate(606.5137,696.2725)"><path
             d="m 0,0 c 29.433,31.088 39.543,74.333 63.03,109.309 13.543,20.167 27.794,39.149 44.776,56.575 4.685,4.809 9.282,9.699 14.07,14.408 1.411,1.388 13.117,10.935 13.059,11.129 0.556,-1.847 3.452,-1.059 2.892,0.798 -2.379,7.895 -22.239,-13.959 -24.197,-15.966 C 98.481,160.726 84.109,144.844 71.486,127.147 57.129,107.021 45.854,85.831 35.322,63.522 25.086,41.839 14.535,19.714 -2.121,2.121 -3.45,0.718 -1.332,-1.407 0,0"
             style="fill:#000000;fill-opacity:1;fill-rule:nonzero;stroke:none"
             id="path118" /></g><g
           id="g120"
           transform="translate(833.9609,806.0044)"><path
             d="m 0,0 c -48.879,-29.065 -94.391,-63.125 -135.771,-102.149 -32.986,-31.108 -74.324,-74.477 -124.33,-66.694 -1.891,0.294 -2.704,-2.596 -0.796,-2.893 48.683,-7.577 89.115,31.507 121.562,62.117 42.738,40.32 88.827,75.953 139.301,106.108 0.516,0.307 1.032,0.614 1.548,0.92 C 3.175,-1.603 1.667,0.991 0,0"
             style="fill:#000000;fill-opacity:1;fill-rule:nonzero;stroke:none"
             id="path122" /></g><g
           id="g124"
           transform="translate(584.2891,558.5957)"><path
             d="m 0,0 c 5.635,3.498 10.121,9.081 14.548,13.917 6.766,7.392 13.369,14.942 20.57,21.921 17.057,16.528 42.339,25.059 65.476,28.072 41.67,5.425 88.634,-11.281 127.49,10.141 1.694,0.934 0.182,3.526 -1.514,2.591 C 207.105,65.91 183.894,65.725 162.249,66.372 140.456,67.023 118.573,69.477 96.861,66.403 75.56,63.388 51.998,54.998 35.729,40.506 28.319,33.906 21.764,26.333 15.112,18.992 10.073,13.43 4.942,6.599 -1.514,2.59 -3.153,1.572 -1.648,-1.023 0,0"
             style="fill:#000000;fill-opacity:1;fill-rule:nonzero;stroke:none"
             id="path126" /></g><g
           id="g128"
           transform="translate(573.625,528.9746)"><path
             d="m 0,0 c 19.782,15.141 44.706,20.803 69.271,18.139 12.733,-1.381 25.165,-5.415 36.475,-11.363 11.823,-6.217 21.035,-15.266 30.397,-24.609 17.716,-17.685 38.134,-38.393 64.277,-41.667 25.942,-3.25 49.144,12.285 74.608,14.041 10.105,0.697 20.445,-1.073 29.003,-6.674 1.624,-1.063 3.125,1.535 1.514,2.59 -22.047,14.428 -49.341,4.039 -72.027,-2.92 -12.923,-3.964 -25.768,-6.035 -39.108,-2.826 -14.267,3.434 -26.931,12.664 -37.855,22.105 -9.993,8.638 -18.976,18.381 -28.507,27.511 -8.405,8.051 -18.296,14.468 -29.03,18.98 C 77.374,22.405 53.224,24.303 30.487,18.342 18.9,15.304 7.984,9.86 -1.514,2.59 -3.028,1.432 -1.536,-1.177 0,0"
             style="fill:#000000;fill-opacity:1;fill-rule:nonzero;stroke:none"
             id="path130" /></g><g
           id="g132"
           transform="translate(554.1055,513.4189)"><path
             d="m 0,0 c 12.068,-4.03 19.683,-15.935 28.065,-24.77 9.441,-9.948 18.837,-19.21 29.808,-27.52 15.109,-11.443 32.157,-20.476 46.281,-33.157 23.359,-20.975 45.547,-43.197 69.264,-63.787 12.108,-10.512 24.533,-21.009 38.146,-29.544 5.598,-3.51 16.747,-10.96 23.309,-5.672 1.507,1.214 -0.63,3.323 -2.121,2.121 -2.403,-1.937 -6.477,-0.395 -8.957,0.527 -5.173,1.923 -9.958,5.036 -14.526,8.079 -13.376,8.91 -25.659,19.509 -37.719,30.092 -22.969,20.156 -44.448,41.935 -67.348,62.152 C 89.353,-68.37 71.324,-59.031 55.688,-46.86 44.913,-38.475 35.577,-28.809 26.517,-18.644 19.106,-10.329 11.755,-0.767 0.797,2.893 -1.043,3.507 -1.826,0.609 0,0"
             style="fill:#000000;fill-opacity:1;fill-rule:nonzero;stroke:none"
             id="path134" /></g><g
           id="g136"
           transform="translate(528.1221,494.7236)"><path
             d="m 0,0 c 1.884,-22.226 13.852,-43.208 24.928,-62.049 12.645,-21.511 27.154,-41.867 39.755,-63.401 13.828,-23.633 23.466,-48.629 31.948,-74.569 6.356,-19.443 12.278,-40.891 24.977,-57.329 2.248,-2.91 4.687,-5.583 7.536,-7.915 2.511,-2.054 4.184,-2.768 7.03,-3.96 1.783,-0.747 2.554,2.158 0.797,2.893 -9.151,3.832 -14.938,12.726 -19.6,21.207 -5.539,10.076 -9.497,20.995 -13.209,31.847 -7.888,23.056 -14.831,46.214 -25.541,68.197 -11.35,23.295 -26.108,44.646 -39.981,66.464 C 25.508,-57.965 11.875,-36.287 5.271,-12.508 4.135,-8.416 3.358,-4.23 3,0 2.838,1.913 -0.163,1.929 0,0"
             style="fill:#000000;fill-opacity:1;fill-rule:nonzero;stroke:none"
             id="path138" /></g><g
           id="g140"
           transform="translate(499.6855,493.5381)"><path
             d="m 0,0 c -1.123,-26.689 7.745,-51.704 17.381,-76.173 9.257,-23.508 18.241,-46.764 20.216,-72.17 1.685,-21.689 1.115,-43.491 3.648,-65.127 2.208,-18.846 6.806,-39.221 20.807,-52.996 1.38,-1.357 3.502,0.763 2.121,2.121 -14.736,14.498 -18.535,36.516 -20.509,56.233 -2.107,21.057 -1.511,42.273 -3.363,63.345 C 35.874,-94.418 0.835,-51.425 3,0 3.081,1.936 0.081,1.927 0,0"
             style="fill:#000000;fill-opacity:1;fill-rule:nonzero;stroke:none"
             id="path142" /></g><g
           id="g144"
           transform="translate(420.877,177.9707)"><path
             d="m 0,0 c 3.828,27.995 14.107,54.405 23.122,81.016 4.574,13.504 8.733,27.147 11.69,41.103 3.074,14.51 4.198,29.447 5.27,44.215 2.24,30.853 2.238,61.818 2.793,92.732 0.238,13.22 0.355,26.503 1.226,39.699 0.276,4.199 0.7,8.389 1.139,12.573 0.25,2.388 0.178,5.269 0.945,7.564 -0.914,-0.12 -1.828,-0.239 -2.742,-0.358 -0.06,0.192 -0.12,0.386 -0.18,0.578 0.082,-1.927 3.082,-1.935 3,0 -0.013,0.328 -0.037,0.654 -0.23,0.936 -0.742,1.087 -2.316,0.914 -2.741,-0.359 -1.9,-5.688 -1.571,-13.061 -2.048,-18.991 C 40.236,288.176 40.206,275.516 39.95,262.951 39.319,232.03 39.327,201.092 37.347,170.215 36.334,154.41 35.081,138.453 31.919,122.917 29.076,108.948 24.77,95.309 20.229,81.813 11.265,55.172 0.937,28.81 -2.893,0.797 -3.151,-1.094 -0.261,-1.91 0,0"
             style="fill:#000000;fill-opacity:1;fill-rule:nonzero;stroke:none"
             id="path146" /></g><g
           id="g148"
           transform="translate(269.3828,251.7158)"><path
             d="m 0,0 c 7.997,-5.047 16.389,1.268 21.96,6.974 10.21,10.455 17.485,23.976 24.179,36.821 13.675,26.239 25.216,54.103 34.381,82.244 8.44,25.917 19.079,51.394 32.072,75.362 7.562,13.95 16.201,27.547 27.03,39.205 8.687,9.353 19.809,18.02 32.934,19.27 1.908,0.182 1.926,3.184 0,3 -16.404,-1.563 -29.413,-13.23 -39.609,-25.293 C 119.528,221.706 109.47,203.033 100.589,184.341 87.846,157.519 79.228,129.377 68.579,101.763 59.501,78.221 49.418,54.817 36.778,32.945 31.589,23.966 25.866,14.925 18.394,7.651 14.026,3.399 7.538,-1.211 1.515,2.59 -0.127,3.626 -1.631,1.029 0,0"
             style="fill:#000000;fill-opacity:1;fill-rule:nonzero;stroke:none"
             id="path150" /></g><g
           id="g152"
           transform="translate(214.5625,312.6846)"><path
             d="m 0,0 c 12.625,17.647 23.089,36.734 35.813,54.327 12.39,17.133 28.231,35.96 49.785,40.956 1.884,0.437 1.085,3.329 -0.798,2.893 C 63.692,93.283 48.177,75.715 35.66,59.142 21.74,40.711 10.832,20.275 -2.591,1.514 -3.719,-0.063 -1.115,-1.559 0,0"
             style="fill:#000000;fill-opacity:1;fill-rule:nonzero;stroke:none"
             id="path154" /></g><g
           id="g156"
           transform="translate(177.5967,375.1777)"><path
             d="m 0,0 c 6.589,6.171 11.435,14.071 16.182,21.671 5.778,9.249 11.26,18.689 17.727,27.487 7.347,9.995 17.057,18.302 26.29,26.496 10.397,9.228 21.293,17.886 32.536,26.056 21.393,15.543 43.566,28.626 68.94,36.466 24.093,7.444 49.124,11.271 73.449,17.839 1.866,0.504 1.073,3.397 -0.798,2.892 -24.885,-6.719 -50.437,-10.728 -75.088,-18.345 C 134.214,132.83 112.359,119.521 91.221,104.3 80.729,96.745 70.623,88.656 60.845,80.2 51.194,71.854 41.206,63.231 33.252,53.205 26.737,44.992 21.399,35.876 15.924,26.96 10.618,18.317 5.344,9.113 -2.121,2.121 -3.536,0.796 -1.41,-1.321 0,0"
             style="fill:#000000;fill-opacity:1;fill-rule:nonzero;stroke:none"
             id="path158" /></g><g
           id="g160"
           transform="translate(124.8311,498.25)"><path
             d="m 0,0 c 9.404,-7.232 20.097,-12.417 32.192,-11.83 10.338,0.502 19.791,5.811 27.916,11.822 19.975,14.779 34.06,36.098 55.749,48.693 48.998,28.453 106.81,15.936 160.185,23.951 1.908,0.286 1.095,3.177 -0.797,2.892 C 246.479,71.209 217.669,73.301 188.79,71.37 165.418,69.808 141.938,64.978 120.78,54.695 99.126,44.173 84.671,25.579 67.182,9.727 58.715,2.052 49.213,-5.065 37.977,-7.937 24.642,-11.347 11.907,-5.401 1.515,2.59 -0.02,3.77 -1.51,1.161 0,0"
             style="fill:#000000;fill-opacity:1;fill-rule:nonzero;stroke:none"
             id="path162" /></g><g
           id="g164"
           transform="translate(115.186,639.4692)"><path
             d="M 0,0 C 0.279,1.619 0.906,3.12 1.185,4.738 0.271,4.619 -0.643,4.5 -1.557,4.38 9.488,-10.238 32.499,-8.342 48.585,-6.725 c 25.885,2.603 51.254,8.796 77.123,11.412 15.523,1.569 31.155,1.187 46.387,-2.373 13.233,-3.093 26.056,-7.859 38.752,-12.635 25.274,-9.508 50.681,-19.4 77.994,-20.402 1.936,-0.071 1.929,2.929 0,3 -27.017,0.991 -52.209,10.867 -77.196,20.294 -12.142,4.581 -24.334,8.757 -36.86,12.158 -13.528,3.674 -27.719,4.316 -41.65,3.546 C 107.114,6.838 81.489,0.446 55.678,-2.896 46.146,-4.13 36.535,-4.979 26.919,-4.49 17.676,-4.021 6.945,-1.929 1.034,5.894 0.35,6.799 -1.46,6.972 -1.708,5.536 -1.987,3.917 -2.614,2.416 -2.893,0.798 -3.219,-1.094 -0.328,-1.904 0,0"
             style="fill:#000000;fill-opacity:1;fill-rule:nonzero;stroke:none"
             id="path166" /></g><g
           id="g168"
           transform="translate(152.5781,753.8066)"><path
             d="m 0,0 c 3.613,-8.782 13.818,-10.817 22.263,-12.087 12.366,-1.86 24.339,-2.408 35.964,-7.578 23.473,-10.438 38.321,-33.624 62.49,-42.995 1.807,-0.701 2.581,2.201 0.798,2.892 -22.514,8.73 -37.074,29.55 -58.059,40.866 -9.671,5.214 -20.233,7.418 -31.045,8.602 C 23.437,-9.317 7.033,-9.266 2.893,0.798 2.167,2.561 -0.736,1.79 0,0"
             style="fill:#000000;fill-opacity:1;fill-rule:nonzero;stroke:none"
             id="path170" /></g><g
           id="g172"
           transform="translate(218.1304,817.127)"><path
             d="m 0,0 c 7.179,-8.518 17.992,-12.146 28.144,-15.82 12.305,-4.455 23.616,-10.913 34.717,-17.798 11.928,-7.398 23.199,-15.94 32.553,-26.457 7.459,-8.388 13.81,-17.694 19.755,-27.193 10.784,-17.231 20.072,-35.45 33.054,-51.206 6.374,-7.735 13.773,-14.538 22.039,-20.201 4.404,-3.017 9.116,-5.556 13.953,-7.801 2.272,-1.055 4.602,-1.985 6.939,-2.881 2.517,-0.966 6.892,-1.439 8.779,-3.324 0.102,-0.102 0.204,-0.204 0.307,-0.306 1.369,-1.368 3.491,0.753 2.121,2.121 -2.928,2.925 -7.944,3.456 -11.765,4.921 -5.825,2.235 -11.379,5.137 -16.66,8.445 -9.014,5.646 -16.776,13.03 -23.592,21.147 -13.471,16.045 -22.819,35.131 -33.946,52.767 -5.669,8.985 -11.871,17.626 -18.863,25.632 -8.685,9.944 -19.316,17.974 -30.342,25.138 -10.385,6.749 -21.389,13.35 -32.932,17.908 C 22.998,-10.461 10.257,-7.532 2.121,2.121 0.873,3.603 -1.238,1.469 0,0"
             style="fill:#000000;fill-opacity:1;fill-rule:nonzero;stroke:none"
             id="path174" /></g><g
           id="g176"
           transform="translate(295.1465,914.2852)"><path
             d="m 0,0 c 14.797,-18.246 25.668,-38.913 34.082,-60.778 8.478,-22.035 14.464,-44.801 24.011,-66.455 19.181,-43.506 47.322,-82.141 75.56,-120.098 1.14,-1.533 3.747,-0.04 2.591,1.514 -28.286,38.021 -56.154,76.63 -75.56,120.098 -10.205,22.855 -16.293,47.105 -25.501,70.326 C 26.967,-34.678 16.177,-15.21 2.121,2.121 0.902,3.625 -1.207,1.488 0,0"
             style="fill:#000000;fill-opacity:1;fill-rule:nonzero;stroke:none"
             id="path178" /></g><g
           id="g180"
           transform="translate(461.644,957.4102)"><path
             d="m 0,0 c -1.692,-50.566 1.336,-101.163 7.105,-151.396 2.34,-20.377 6.789,-40.296 10.503,-60.446 3.684,-19.981 7.137,-41.262 3.159,-61.463 -0.372,-1.89 2.519,-2.695 2.893,-0.798 3.678,18.682 1.102,38.037 -2.019,56.609 -3.603,21.452 -8.768,42.566 -11.314,64.192 C 4.341,-102.464 1.288,-51.188 3,0 3.065,1.936 0.064,1.929 0,0"
             style="fill:#000000;fill-opacity:1;fill-rule:nonzero;stroke:none"
             id="path182" /></g><g
           id="g184"
           transform="translate(542.3936,977.3555)"><path
             d="m 0,0 c -4.33,-12.219 -3.8,-25.097 -2.271,-37.784 1.511,-12.542 3.557,-24.921 4.51,-37.532 1.875,-24.801 3.143,-50.699 -2.239,-75.159 -0.415,-1.885 2.478,-2.687 2.893,-0.797 5.228,23.761 4.219,48.719 2.572,72.829 -0.822,12.035 -2.361,23.856 -4.082,35.79 -2.009,13.926 -3.279,28.343 1.51,41.855 C 3.54,1.031 0.642,1.81 0,0"
             style="fill:#000000;fill-opacity:1;fill-rule:nonzero;stroke:none"
             id="path186" /></g><g
           id="g188"
           transform="translate(499.4639,689.8452)"><path
             d="m 0,0 c 9.839,12.853 10.759,29.87 11.95,45.402 0.074,0.965 -1.427,0.958 -1.5,0 C 9.276,30.108 8.394,13.414 -1.295,0.757 -1.883,-0.011 -0.579,-0.757 0,0"
             style="fill:#000000;fill-opacity:1;fill-rule:nonzero;stroke:none"
             id="path190" /></g><g
           id="g192"
           transform="translate(536.0762,690.8789)"><path
             d="M 0,0 C 1.373,1.435 2.185,3.305 3.554,4.738 4.222,5.437 3.162,6.5 2.493,5.799 1.121,4.363 0.31,2.493 -1.061,1.061 -1.729,0.362 -0.67,-0.7 0,0"
             style="fill:#000000;fill-opacity:1;fill-rule:nonzero;stroke:none"
             id="path194" /></g><g
           id="g196"
           transform="translate(542.6543,691.8428)"><path
             d="M 0,0 C 2.102,0.075 3.362,2.274 4.202,3.926 4.64,4.786 3.346,5.545 2.907,4.683 2.369,3.626 1.428,1.551 0,1.5 -0.965,1.465 -0.968,-0.035 0,0"
             style="fill:#000000;fill-opacity:1;fill-rule:nonzero;stroke:none"
             id="path198" /></g><g
           id="g200"
           transform="translate(566.8828,674.29)"><path
             d="m 0,0 c 17.338,20.29 22.074,47.86 29.813,72.607 0.29,0.926 -1.159,1.319 -1.447,0.399 C 20.714,48.535 16.081,21.122 -1.061,1.061 -1.686,0.33 -0.629,-0.736 0,0"
             style="fill:#000000;fill-opacity:1;fill-rule:nonzero;stroke:none"
             id="path202" /></g><g
           id="g204"
           transform="translate(604.6465,669.4346)"><path
             d="M 0,0 C 4.43,2.244 8.451,4.923 12,8.41 12.691,9.089 11.63,10.149 10.939,9.471 7.479,6.071 3.557,3.481 -0.758,1.295 -1.62,0.858 -0.861,-0.436 0,0"
             style="fill:#000000;fill-opacity:1;fill-rule:nonzero;stroke:none"
             id="path206" /></g><g
           id="g208"
           transform="translate(588.8633,651.5586)"><path
             d="m 0,0 c 13.32,-0.41 25.935,8.276 35.958,16.116 12.503,9.778 23.689,21.076 34.48,32.683 0.657,0.707 -0.401,1.77 -1.061,1.06 C 59.852,39.614 50.017,29.646 39.264,20.678 28.613,11.794 14.634,1.049 0,1.5 -0.968,1.53 -0.965,0.03 0,0"
             style="fill:#000000;fill-opacity:1;fill-rule:nonzero;stroke:none"
             id="path210" /></g><g
           id="g212"
           transform="translate(598.7227,603.082)"><path
             d="m 0,0 c 10.7,4.873 19.202,13.54 29.62,18.958 0.859,0.446 0.1,1.741 -0.758,1.295 C 18.445,14.834 9.943,6.168 -0.758,1.295 -1.637,0.895 -0.874,-0.398 0,0"
             style="fill:#000000;fill-opacity:1;fill-rule:nonzero;stroke:none"
             id="path214" /></g><g
           id="g216"
           transform="translate(729.8613,659.8516)"><path
             d="m 0,0 c 5.257,0.002 10.427,0.231 15.602,1.212 0.95,0.181 0.546,1.626 -0.399,1.447 C 10.153,1.702 5.124,1.502 0,1.5 -0.967,1.5 -0.968,0 0,0"
             style="fill:#000000;fill-opacity:1;fill-rule:nonzero;stroke:none"
             id="path218" /></g><g
           id="g220"
           transform="translate(754.7432,645.6338)"><path
             d="m 0,0 c 19.542,2.342 38.493,6.419 54.881,17.875 0.786,0.55 0.037,1.851 -0.758,1.295 C 37.948,7.862 19.282,3.811 0,1.5 -0.948,1.386 -0.959,-0.115 0,0"
             style="fill:#000000;fill-opacity:1;fill-rule:nonzero;stroke:none"
             id="path222" /></g><g
           id="g224"
           transform="translate(630.8643,579.5029)"><path
             d="m 0,0 c 16.342,20.689 39.314,32.734 65.821,32.956 0.967,0.008 0.968,1.508 0,1.5 C 38.951,34.231 15.521,22.054 -1.061,1.061 -1.653,0.311 -0.6,-0.759 0,0"
             style="fill:#000000;fill-opacity:1;fill-rule:nonzero;stroke:none"
             id="path226" /></g><g
           id="g228"
           transform="translate(716.4482,591.2344)"><path
             d="M 0,0 C 5.725,-2.69 12.124,-3.524 18.351,-2.447 19.303,-2.282 18.897,-0.837 17.952,-1 12.152,-2.004 6.089,-1.211 0.758,1.295 -0.112,1.704 -0.875,0.411 0,0"
             style="fill:#000000;fill-opacity:1;fill-rule:nonzero;stroke:none"
             id="path230" /></g><g
           id="g232"
           transform="translate(773.8994,592.3418)"><path
             d="m 0,0 c 20.615,2.816 39.612,12.694 58.237,21.403 0.875,0.409 0.114,1.702 -0.758,1.295 C 38.953,14.035 20.106,4.248 -0.398,1.447 -1.354,1.316 -0.945,-0.129 0,0"
             style="fill:#000000;fill-opacity:1;fill-rule:nonzero;stroke:none"
             id="path234" /></g><g
           id="g236"
           transform="translate(679.1123,561.5361)"><path
             d="m 0,0 c 15.364,5.863 30.878,9.786 45.631,0.076 0.81,-0.534 1.561,0.766 0.758,1.295 C 31.302,11.301 15.405,7.478 -0.398,1.447 -1.293,1.105 -0.905,-0.345 0,0"
             style="fill:#000000;fill-opacity:1;fill-rule:nonzero;stroke:none"
             id="path238" /></g><g
           id="g240"
           transform="translate(718.668,542.7715)"><path
             d="m 0,0 c 8.148,-10.064 19.915,-15.433 29.62,-23.696 0.732,-0.623 1.798,0.432 1.061,1.06 C 20.991,-14.385 9.194,-8.985 1.061,1.061 0.452,1.812 -0.603,0.744 0,0"
             style="fill:#000000;fill-opacity:1;fill-rule:nonzero;stroke:none"
             id="path242" /></g><g
           id="g244"
           transform="translate(775.4238,535.8135)"><path
             d="m 0,0 c 5.573,-9.123 15.468,-14.414 23.965,-20.41 0.793,-0.56 1.541,0.742 0.758,1.295 C 16.435,-13.267 6.729,-8.136 1.295,0.758 0.792,1.581 -0.506,0.828 0,0"
             style="fill:#000000;fill-opacity:1;fill-rule:nonzero;stroke:none"
             id="path246" /></g><g
           id="g248"
           transform="translate(595.7734,522.4365)"><path
             d="m 0,0 c 7.923,-1.304 15.856,-2.315 23.897,-2.396 0.968,-0.009 0.967,1.491 0,1.5 C 15.991,-0.816 8.191,0.165 0.398,1.447 -0.547,1.603 -0.953,0.157 0,0"
             style="fill:#000000;fill-opacity:1;fill-rule:nonzero;stroke:none"
             id="path250" /></g><g
           id="g252"
           transform="translate(627.9639,534.2588)"><path
             d="m 0,0 c 22.63,-2.563 36.958,-18.522 50.419,-35.325 0.604,-0.755 1.659,0.313 1.06,1.06 C 37.687,-17.048 23.103,-1.117 0,1.5 -0.96,1.608 -0.95,0.107 0,0"
             style="fill:#000000;fill-opacity:1;fill-rule:nonzero;stroke:none"
             id="path254" /></g><g
           id="g256"
           transform="translate(742.6953,460.8232)"><path
             d="M 0,0 C 19.658,-5.628 38.849,-5.412 57.451,3.631 58.32,4.054 57.56,5.347 56.693,4.926 38.461,-3.938 19.654,-4.067 0.398,1.447 -0.533,1.714 -0.929,0.267 0,0"
             style="fill:#000000;fill-opacity:1;fill-rule:nonzero;stroke:none"
             id="path258" /></g><g
           id="g260"
           transform="translate(582.4102,510.7803)"><path
             d="m 0,0 c 18.266,-19.733 33.325,-43.625 58.209,-55.804 0.865,-0.424 1.626,0.87 0.758,1.295 C 34.198,-42.386 19.237,-18.577 1.061,1.061 0.402,1.771 -0.656,0.709 0,0"
             style="fill:#000000;fill-opacity:1;fill-rule:nonzero;stroke:none"
             id="path262" /></g><g
           id="g264"
           transform="translate(723.2129,428.1738)"><path
             d="m 0,0 c 6.124,-16.591 16.993,-30.715 24.958,-46.389 0.438,-0.862 1.732,-0.102 1.295,0.758 C 18.351,-30.078 7.522,-16.062 1.447,0.398 1.115,1.298 -0.335,0.909 0,0"
             style="fill:#000000;fill-opacity:1;fill-rule:nonzero;stroke:none"
             id="path266" /></g><g
           id="g268"
           transform="translate(659.2041,371.5)"><path
             d="m 0,0 c -0.912,-11.517 9.46,-17.148 19.709,-17.339 0.968,-0.017 0.966,1.483 0,1.5 C 10.264,-15.664 0.651,-10.714 1.5,0 1.576,0.965 0.076,0.958 0,0"
             style="fill:#000000;fill-opacity:1;fill-rule:nonzero;stroke:none"
             id="path270" /></g><g
           id="g272"
           transform="translate(661.7949,392.2969)"><path
             d="m 0,0 c 16.129,-13.661 32.427,-27.666 44.906,-44.874 0.562,-0.774 1.865,-0.027 1.295,0.758 C 33.64,-26.795 17.298,-12.692 1.061,1.061 0.327,1.682 -0.739,0.626 0,0"
             style="fill:#000000;fill-opacity:1;fill-rule:nonzero;stroke:none"
             id="path274" /></g><g
           id="g276"
           transform="translate(536.083,499.085)"><path
             d="m 0,0 c 5.842,-11.947 9.561,-24.783 15.404,-36.731 0.425,-0.869 1.719,-0.108 1.295,0.757 C 10.856,-24.027 7.138,-11.19 1.295,0.758 0.87,1.626 -0.423,0.866 0,0"
             style="fill:#000000;fill-opacity:1;fill-rule:nonzero;stroke:none"
             id="path278" /></g><g
           id="g280"
           transform="translate(613.0215,404.4756)"><path
             d="m 0,0 c 7.117,-26.837 18.841,-52.239 24.882,-79.384 0.211,-0.944 1.656,-0.544 1.447,0.399 C 20.287,-51.84 8.563,-26.437 1.447,0.398 1.199,1.333 -0.248,0.936 0,0"
             style="fill:#000000;fill-opacity:1;fill-rule:nonzero;stroke:none"
             id="path282" /></g><g
           id="g284"
           transform="translate(487.4023,487.6143)"><path
             d="m 0,0 c 0.161,-8.122 2.352,-15.908 3.582,-23.896 0.147,-0.954 1.592,-0.546 1.446,0.399 C 3.819,-15.646 1.659,-7.985 1.5,0 1.481,0.966 -0.019,0.968 0,0"
             style="fill:#000000;fill-opacity:1;fill-rule:nonzero;stroke:none"
             id="path286" /></g><g
           id="g288"
           transform="translate(522.9482,337.1387)"><path
             d="m 0,0 c -0.121,-13.567 -1.693,-28.532 2.396,-41.669 0.287,-0.921 1.735,-0.527 1.447,0.398 C -0.2,-28.282 1.38,-13.425 1.5,0 1.509,0.968 0.009,0.967 0,0"
             style="fill:#000000;fill-opacity:1;fill-rule:nonzero;stroke:none"
             id="path290" /></g><g
           id="g292"
           transform="translate(480.2939,409.4141)"><path
             d="m 0,0 c -0.948,-18.829 4.603,-37.021 5.923,-55.687 0.068,-0.959 1.568,-0.965 1.5,0 C 6.103,-37.026 0.552,-18.819 1.5,0 1.549,0.967 0.048,0.963 0,0"
             style="fill:#000000;fill-opacity:1;fill-rule:nonzero;stroke:none"
             id="path294" /></g><g
           id="g296"
           transform="translate(437.6392,346.6182)"><path
             d="m 0,0 c 0.922,-16.535 -4.476,-32.247 -7.083,-48.381 -0.152,-0.946 1.293,-1.351 1.447,-0.398 C -3.007,-32.512 2.43,-16.669 1.5,0 1.446,0.962 -0.054,0.967 0,0"
             style="fill:#000000;fill-opacity:1;fill-rule:nonzero;stroke:none"
             id="path298" /></g><g
           id="g300"
           transform="translate(435.4878,498.8086)"><path
             d="m 0,0 c -14.575,-12.569 -20.193,-31.887 -23.889,-50.095 -0.192,-0.944 1.254,-1.346 1.446,-0.398 3.649,17.976 9.111,37.019 23.504,49.432 C 1.794,-0.428 0.729,0.628 0,0"
             style="fill:#000000;fill-opacity:1;fill-rule:nonzero;stroke:none"
             id="path302" /></g><g
           id="g304"
           transform="translate(442.5972,462.2021)"><path
             d="m 0,0 c 0.902,-0.991 0.903,-2.688 0,-3.679 -0.65,-0.713 0.408,-1.777 1.061,-1.06 1.468,1.612 1.467,4.187 0,5.8 C 0.408,1.777 -0.649,0.714 0,0"
             style="fill:#000000;fill-opacity:1;fill-rule:nonzero;stroke:none"
             id="path306" /></g><g
           id="g308"
           transform="translate(423.5234,413.3477)"><path
             d="m 0,0 c -6.779,-14.604 -14.416,-28.743 -22.513,-42.654 -0.487,-0.838 0.809,-1.593 1.295,-0.758 8.097,13.912 15.734,28.05 22.513,42.654 C 1.7,0.114 0.407,0.876 0,0"
             style="fill:#000000;fill-opacity:1;fill-rule:nonzero;stroke:none"
             id="path310" /></g><g
           id="g312"
           transform="translate(370.2051,479.6992)"><path
             d="m 0,0 c -7.359,-15.77 -16.435,-30.791 -21.403,-47.572 -0.275,-0.93 1.173,-1.324 1.446,-0.399 4.932,16.657 13.949,31.563 21.252,47.213 C 1.701,0.113 0.409,0.876 0,0"
             style="fill:#000000;fill-opacity:1;fill-rule:nonzero;stroke:none"
             id="path314" /></g><g
           id="g316"
           transform="translate(241.1655,411.4043)"><path
             d="m 0,0 c 10.398,17.125 23.701,31.925 37.799,46.059 0.684,0.685 -0.377,1.746 -1.06,1.06 C 22.549,32.895 9.168,17.99 -1.295,0.758 -1.798,-0.071 -0.501,-0.825 0,0"
             style="fill:#000000;fill-opacity:1;fill-rule:nonzero;stroke:none"
             id="path318" /></g><g
           id="g320"
           transform="translate(237.9355,485.7822)"><path
             d="m 0,0 c 21.063,12.982 40.251,29.373 63.803,37.84 0.903,0.325 0.513,1.774 -0.399,1.447 C 39.717,30.771 20.427,14.353 -0.757,1.295 -1.579,0.789 -0.826,-0.509 0,0"
             style="fill:#000000;fill-opacity:1;fill-rule:nonzero;stroke:none"
             id="path322" /></g><g
           id="g324"
           transform="translate(305.0303,453.9082)"><path
             d="m 0,0 c 10.474,10.618 19.169,22.72 28.437,34.361 0.595,0.748 -0.458,1.818 -1.061,1.061 C 18.109,23.78 9.414,11.679 -1.061,1.061 -1.74,0.372 -0.68,-0.689 0,0"
             style="fill:#000000;fill-opacity:1;fill-rule:nonzero;stroke:none"
             id="path326" /></g><g
           id="g328"
           transform="translate(260.8608,542.5781)"><path
             d="m 0,0 c 21.624,3.851 40.643,16.355 62.597,18.932 0.949,0.111 0.96,1.612 0,1.5 C 40.492,17.838 21.365,5.322 -0.398,1.447 -1.35,1.277 -0.945,-0.168 0,0"
             style="fill:#000000;fill-opacity:1;fill-rule:nonzero;stroke:none"
             id="path330" /></g><g
           id="g332"
           transform="translate(269.333,366.1123)"><path
             d="M 0,0 C 4.529,2.462 8.587,7.629 10.933,12.118 11.38,12.975 10.085,13.733 9.638,12.876 7.416,8.622 3.553,3.638 -0.757,1.295 -1.607,0.833 -0.85,-0.462 0,0"
             style="fill:#000000;fill-opacity:1;fill-rule:nonzero;stroke:none"
             id="path334" /></g><g
           id="g336"
           transform="translate(241.0483,375.708)"><path
             d="M 0,0 C 0.791,0.79 1.581,1.581 2.371,2.371 3.056,3.056 1.995,4.116 1.311,3.432 0.52,2.642 -0.27,1.851 -1.061,1.061 -1.745,0.376 -0.685,-0.685 0,0"
             style="fill:#000000;fill-opacity:1;fill-rule:nonzero;stroke:none"
             id="path338" /></g><g
           id="g340"
           transform="translate(707.5479,746.3735)"><path
             d="m 0,0 c 16.411,5.862 32.908,11.805 47.574,21.403 0.806,0.527 0.055,1.826 -0.758,1.295 C 32.259,13.17 15.894,7.266 -0.398,1.446 -1.303,1.124 -0.913,-0.326 0,0"
             style="fill:#000000;fill-opacity:1;fill-rule:nonzero;stroke:none"
             id="path342" /></g><g
           id="g344"
           transform="translate(467.2861,919.8848)"><path
             d="m 0,0 c 11.77,-28.447 20.148,-58.077 28.436,-87.679 0.26,-0.93 1.708,-0.534 1.447,0.399 C 21.594,-57.678 13.216,-28.048 1.446,0.398 1.082,1.279 -0.37,0.894 0,0"
             style="fill:#000000;fill-opacity:1;fill-rule:nonzero;stroke:none"
             id="path346" /></g><g
           id="g348"
           transform="translate(550.4189,946.8062)"><path
             d="m 0,0 c 3.283,-3.47 4.454,-7.819 4.521,-12.504 0.013,-0.967 1.513,-0.968 1.5,0 C 5.948,-7.423 4.611,-2.692 1.061,1.061 0.395,1.765 -0.664,0.702 0,0"
             style="fill:#000000;fill-opacity:1;fill-rule:nonzero;stroke:none"
             id="path350" /></g><g
           id="g352"
           transform="translate(530.084,934.501)"><path
             d="m 0,0 c -1.051,-5.568 -1.21,-11.133 -1.212,-16.786 0,-0.967 1.5,-0.967 1.5,0 C 0.29,-11.267 0.42,-5.84 1.447,-0.398 1.625,0.546 0.18,0.95 0,0"
             style="fill:#000000;fill-opacity:1;fill-rule:nonzero;stroke:none"
             id="path354" /></g><g
           id="g356"
           transform="translate(597.8135,940.7578)"><path
             d="m 0,0 c -15.539,-18.939 -23.289,-42.714 -28.184,-66.384 -5.033,-24.346 -6.769,-49.227 -8.767,-73.959 -0.078,-0.965 1.423,-0.958 1.5,0 1.949,24.122 3.758,48.286 8.415,72.073 4.673,23.87 12.46,48.151 28.097,67.209 C 1.669,-0.319 0.614,0.749 0,0"
             style="fill:#000000;fill-opacity:1;fill-rule:nonzero;stroke:none"
             id="path358" /></g><g
           id="g360"
           transform="translate(630.7686,895.2021)"><path
             d="m 0,0 c -0.002,-4.726 -0.088,-9.391 -1.158,-14.02 -0.217,-0.941 1.229,-1.34 1.447,-0.398 C 1.388,-9.665 1.498,-4.859 1.5,0 1.501,0.967 0.001,0.967 0,0"
             style="fill:#000000;fill-opacity:1;fill-rule:nonzero;stroke:none"
             id="path362" /></g><g
           id="g364"
           transform="translate(352.5498,879.2695)"><path
             d="m 0,0 c 3.792,-3.729 8.055,-6.935 11.847,-10.664 0.69,-0.678 1.751,0.382 1.061,1.061 C 9.116,-5.874 4.853,-2.668 1.061,1.061 0.371,1.739 -0.69,0.679 0,0"
             style="fill:#000000;fill-opacity:1;fill-rule:nonzero;stroke:none"
             id="path366" /></g><g
           id="g368"
           transform="translate(370.3223,828.3208)"><path
             d="m 0,0 c 22.5,-21.568 37.521,-49.103 53.201,-75.679 0.491,-0.833 1.788,-0.078 1.295,0.757 C 38.751,-48.236 23.651,-20.594 1.061,1.061 0.363,1.729 -0.7,0.67 0,0"
             style="fill:#000000;fill-opacity:1;fill-rule:nonzero;stroke:none"
             id="path370" /></g><g
           id="g372"
           transform="translate(317.9951,878.4155)"><path
             d="m 0,0 c 3.52,-16.859 4.774,-34.09 8.294,-50.949 0.198,-0.947 1.644,-0.546 1.447,0.398 -3.52,16.86 -4.775,34.09 -8.295,50.949 C 1.249,1.345 -0.197,0.944 0,0"
             style="fill:#000000;fill-opacity:1;fill-rule:nonzero;stroke:none"
             id="path374" /></g><g
           id="g376"
           transform="translate(285.165,806.876)"><path
             d="M 0,0 C 4.295,-2.841 8.738,-5.452 13.033,-8.294 13.842,-8.83 14.592,-7.531 13.79,-7 9.495,-4.157 5.053,-1.546 0.757,1.295 -0.053,1.831 -0.803,0.531 0,0"
             style="fill:#000000;fill-opacity:1;fill-rule:nonzero;stroke:none"
             id="path378" /></g><g
           id="g380"
           transform="translate(258.7534,769.4102)"><path
             d="m 0,0 c 8.121,-20.588 28.279,-33.409 44.033,-47.726 0.714,-0.649 1.778,0.409 1.06,1.061 C 29.591,-32.577 9.437,-19.859 1.446,0.398 1.096,1.288 -0.355,0.901 0,0"
             style="fill:#000000;fill-opacity:1;fill-rule:nonzero;stroke:none"
             id="path382" /></g><g
           id="g384"
           transform="translate(195.6938,665.8042)"><path
             d="M 0,0 C 7.533,2.63 14.68,6.558 22.513,8.293 23.457,8.502 23.057,9.948 22.114,9.739 14.281,8.004 7.134,4.077 -0.398,1.446 -1.306,1.129 -0.916,-0.32 0,0"
             style="fill:#000000;fill-opacity:1;fill-rule:nonzero;stroke:none"
             id="path386" /></g><g
           id="g388"
           transform="translate(187.3994,617.2241)"><path
             d="m 0,0 c 21.841,7.865 40.676,-14.822 62.798,-11.848 0.955,0.129 0.547,1.574 -0.399,1.447 C 40.253,-13.379 21.753,9.423 -0.398,1.446 -1.302,1.121 -0.912,-0.329 0,0"
             style="fill:#000000;fill-opacity:1;fill-rule:nonzero;stroke:none"
             id="path390" /></g><g
           id="g392"
           transform="translate(311.6089,611.2734)"><path
             d="M 0,0 C 3.002,-0.001 6.303,0.184 9.102,-1.083 9.976,-1.479 10.739,-0.187 9.858,0.212 6.783,1.604 3.308,1.499 0,1.5 -0.967,1.5 -0.967,0 0,0"
             style="fill:#000000;fill-opacity:1;fill-rule:nonzero;stroke:none"
             id="path394" /></g><g
           id="g396"
           transform="translate(406.3979,628.1777)"><path
             d="M 0,0 C -15.121,-1.435 -32.494,-1.097 -45.831,7.006 -46.66,7.51 -47.413,6.212 -46.587,5.711 -33.034,-2.523 -15.358,-2.958 0,-1.5 0.954,-1.409 0.963,0.091 0,0"
             style="fill:#000000;fill-opacity:1;fill-rule:nonzero;stroke:none"
             id="path398" /></g><g
           id="g400"
           transform="translate(393.1646,599.7144)"><path
             d="m 0,0 c -5.886,-1.092 -11.887,-1.279 -17.773,-2.371 -0.95,-0.176 -0.547,-1.622 0.398,-1.447 5.886,1.092 11.887,1.279 17.773,2.371 C 1.349,-1.27 0.945,0.175 0,0"
             style="fill:#000000;fill-opacity:1;fill-rule:nonzero;stroke:none"
             id="path402" /></g><g
           id="g404"
           transform="translate(186.2153,489.2598)"><path
             d="m 0,0 c 8.582,1.312 16.046,4.207 22.842,9.674 0.754,0.606 -0.314,1.66 -1.06,1.06 C 15.217,5.454 7.868,2.711 -0.398,1.447 -1.353,1.301 -0.946,-0.145 0,0"
             style="fill:#000000;fill-opacity:1;fill-rule:nonzero;stroke:none"
             id="path406" /></g><g
           id="g408"
           transform="translate(432.9258,821.5425)"><path
             d="m 0,0 c 2.55,-18.554 7.163,-36.734 13.033,-54.503 0.301,-0.914 1.75,-0.523 1.446,0.398 C 8.609,-36.336 3.996,-18.155 1.446,0.398 1.315,1.354 -0.13,0.945 0,0"
             style="fill:#000000;fill-opacity:1;fill-rule:nonzero;stroke:none"
             id="path410" /></g><g
           id="g412"
           transform="translate(340.6929,279.8867)"><path
             d="m 0,0 c 7.343,9.854 14.128,20.089 20.144,30.807 0.474,0.844 -0.822,1.6 -1.295,0.757 C 12.833,20.846 6.047,10.61 -1.295,0.758 -1.874,-0.02 -0.571,-0.766 0,0"
             style="fill:#000000;fill-opacity:1;fill-rule:nonzero;stroke:none"
             id="path414" /></g><g
           id="g416"
           transform="translate(309.9902,341.8779)"><path
             d="m 0,0 c 0.033,19.94 1.971,38.739 11.746,56.494 0.467,0.849 -0.829,1.605 -1.295,0.758 C 0.551,39.27 -1.467,20.208 -1.5,0 -1.501,-0.968 -0.001,-0.967 0,0"
             style="fill:#000000;fill-opacity:1;fill-rule:nonzero;stroke:none"
             id="path418" /></g><g
           id="g420"
           transform="translate(698.5244,818.7178)"><path
             d="m 0,0 c -5.172,-6.386 -10.884,-12.301 -15.52,-19.11 -0.545,-0.802 0.754,-1.552 1.295,-0.757 4.565,6.704 10.194,12.52 15.286,18.806 C 1.663,-0.316 0.609,0.752 0,0"
             style="fill:#000000;fill-opacity:1;fill-rule:nonzero;stroke:none"
             id="path422" /></g><g
           id="g424"
           transform="translate(677.1973,847.1538)"><path
             d="m 0,0 c -1.002,-1.06 -1.375,-2.504 -2.369,-3.554 -0.664,-0.702 0.394,-1.764 1.06,-1.061 1.004,1.06 1.376,2.504 2.37,3.554 C 1.725,-0.358 0.666,0.704 0,0"
             style="fill:#000000;fill-opacity:1;fill-rule:nonzero;stroke:none"
             id="path426" /></g><g
           id="g428"
           transform="translate(615.3662,817.002)"><path
             d="m 0,0 c -1.571,-15.177 -10.126,-28.41 -15.377,-42.456 -0.339,-0.907 1.111,-1.295 1.447,-0.398 C -8.625,-28.664 -0.089,-15.346 1.5,0 1.6,0.962 0.099,0.952 0,0"
             style="fill:#000000;fill-opacity:1;fill-rule:nonzero;stroke:none"
             id="path430" /></g><g
           id="g432"
           transform="translate(552.5684,645.2002)"><path
             d="m 0,0 c 0.062,-1.654 1.468,-3.058 3.121,-3.121 0.968,-0.037 0.964,1.463 0,1.5 C 2.302,-1.59 1.531,-0.819 1.5,0 1.463,0.964 -0.037,0.968 0,0"
             style="fill:#000000;fill-opacity:1;fill-rule:nonzero;stroke:none"
             id="path434" /></g><g
           id="g436"
           transform="translate(414.6909,852.9844)"><path
             d="M 0,0 C 0.967,0 0.967,1.5 0,1.5 -0.967,1.5 -0.967,0 0,0"
             style="fill:#000000;fill-opacity:1;fill-rule:nonzero;stroke:none"
             id="path438" /></g><g
           id="g440"
           transform="translate(595.9727,584.7725)"><path
             d="m 0,0 c 0,-52.35 -48.804,-94.787 -109.007,-94.787 -60.202,0 -109.006,42.437 -109.006,94.787 0,52.35 48.804,94.789 109.006,94.789 C -48.804,94.789 0,52.35 0,0"
             style="fill:#ffffff;fill-opacity:1;fill-rule:nonzero;stroke:none"
             id="path442" /></g><g
           id="g444"
           transform="translate(595.9727,584.7725)"><path
             d="m 0,0 c 0,-52.35 -48.804,-94.787 -109.007,-94.787 -60.202,0 -109.006,42.437 -109.006,94.787 0,52.35 48.804,94.789 109.006,94.789 C -48.804,94.789 0,52.35 0,0 Z"
             style="fill:none;stroke:#000000;stroke-width:3;stroke-linecap:butt;stroke-linejoin:miter;stroke-miterlimit:10;stroke-dasharray:none;stroke-opacity:1"
             id="path446" /></g></g></g></g></svg>
